#!OML:ASF E:\Steps\Project 1\Capture day 1\Session 2\Subject.ASF
:FULLY-SPECIFIED
:DEGREES
1211
root 4.04078 17.9871 16.6844 -154.028 -4.03246 176.727
lowerback -27.1089 -2.62936 -7.47246
upperback 0.662144 -1.42397 0.305922
thorax 15.4388 -1.34664 3.85339
lowerneck 0.888682 -0.167215 -1.40327
upperneck 23.4713 -3.35899 3.22898
head 7.0909 -2.39433 0.984323
rclavicle -8.57259e-016 -4.62174e-015
rhumerus -39.5494 -17.0668 -77.9536
rradius 35.4479
rwrist -2.06691
rhand -11.544 -54.8451
rfingers 7.12502
rthumb 14.4964 -84.3187
lclavicle -8.57259e-016 -4.62174e-015
lhumerus -30.9809 4.26926 79.5657
lradius 28.5908
lwrist -2.18756
lhand -23.3513 -14.4461
lfingers 7.12502
lthumb 3.10387 15.511
rfemur -23.4683 3.10755 20.1218
rtibia 6.02683
rfoot -15.8476 0.933157
rtoes -5.95612
lfemur -25.1664 -10.4319 -21.5715
ltibia 8.58985
lfoot -4.4337 -5.38504
ltoes 0.460652
1212
root 4.03477 17.9836 16.6748 -154.002 -4.05202 176.724
lowerback -26.3185 -2.58993 -7.45552
upperback -0.286463 -1.52034 0.224566
thorax 14.6902 -1.38472 3.93931
lowerneck 0.934614 -0.0926966 -1.47974
upperneck 24.1418 -3.43755 3.25112
head 7.30822 -2.48587 0.990924
rclavicle 6.62201e-015 1.49089e-015
rhumerus -40.5517 -16.7299 -77.6992
rradius 35.6949
rwrist -2.17662
rhand -11.3536 -54.6472
rfingers 7.12502
rthumb 14.6798 -84.1075
lclavicle 6.62201e-015 1.49089e-015
lhumerus -31.9022 4.07188 79.5485
lradius 28.5254
lwrist -2.40469
lhand -23.3516 -14.7836
lfingers 7.12502
lthumb 3.10356 15.1736
rfemur -23.5255 3.26638 20.0774
rtibia 6.1942
rfoot -15.9503 0.77418
rtoes -5.76078
lfemur -25.1224 -10.4207 -21.6049
ltibia 8.53
lfoot -4.36464 -5.42519
ltoes 0.721176
1213
root 4.03089 17.9825 16.6668 -153.954 -4.07149 176.763
lowerback -26.1085 -2.59991 -7.42533
upperback -0.475153 -1.59203 0.272726
thorax 14.3553 -1.4082 3.95474
lowerneck 1.46664 -0.054032 -1.32121
upperneck 23.5577 -3.2933 3.16156
head 7.01555 -2.40443 0.955664
rclavicle -5.45415e-015 2.18663e-015
rhumerus -40.7834 -16.6984 -77.5737
rradius 35.7741
rwrist -2.13772
rhand -11.1456 -54.6301
rfingers 7.12502
rthumb 14.8802 -84.0757
lclavicle -5.45415e-015 2.18663e-015
lhumerus -32.1249 4.10832 79.5922
lradius 28.3655
lwrist -2.57834
lhand -23.446 -14.9485
lfingers 7.12502
lthumb 3.01241 15.01
rfemur -23.3734 3.11785 20.1326
rtibia 5.82431
rfoot -15.7391 0.836659
rtoes -6.15213
lfemur -25.1582 -10.2406 -21.6036
ltibia 8.5498
lfoot -4.30955 -5.5999
ltoes 1.86702
1214
root 4.02732 17.9817 16.6602 -153.886 -4.07287 176.787
lowerback -26.2369 -2.62538 -7.39876
upperback -0.479757 -1.62828 0.290242
thorax 14.4255 -1.42668 3.94374
lowerneck 1.3135 -0.146587 -1.58725
upperneck 23.5911 -3.46702 3.44263
head 7.06499 -2.48565 1.08032
rclavicle -5.57839e-015 -2.33572e-014
rhumerus -40.6791 -16.7994 -77.5451
rradius 35.7456
rwrist -2.15183
rhand -11.1223 -54.2638
rfingers 7.12502
rthumb 14.9027 -83.7078
lclavicle -5.57839e-015 -2.33572e-014
lhumerus -32.0217 4.23364 79.5776
lradius 28.1958
lwrist -2.80273
lhand -23.5791 -14.8879
lfingers 7.12502
lthumb 2.88383 15.0724
rfemur -23.7655 3.84087 20.0019
rtibia 6.52649
rfoot -16.2184 0.062678
rtoes -6.95807
lfemur -25.1965 -10.119 -21.6096
ltibia 8.52432
lfoot -4.2743 -5.69156
ltoes 2.89097
1215
root 4.02174 17.9799 16.6538 -153.901 -4.09081 176.774
lowerback -26.2711 -2.63307 -7.3348
upperback -0.465526 -1.64957 0.259239
thorax 14.4614 -1.4314 3.86167
lowerneck 1.55768 -0.0679217 -1.39238
upperneck 23.1972 -3.27743 3.35989
head 6.88449 -2.37329 1.0382
rclavicle -1.63873e-014 -1.2424e-015
rhumerus -40.6001 -16.8008 -77.5853
rradius 35.7358
rwrist -2.20537
rhand -11.062 -53.7752
rfingers 7.12502
rthumb 14.9608 -83.2148
lclavicle -1.63873e-014 -1.2424e-015
lhumerus -31.9683 4.06933 79.6317
lradius 28.1395
lwrist -2.67362
lhand -23.5983 -14.6123
lfingers 7.12502
lthumb 2.86534 15.3482
rfemur -23.703 3.78711 19.9797
rtibia 6.47827
rfoot -16.193 -0.0534502
rtoes -7.86673
lfemur -25.139 -10.1222 -21.6591
ltibia 8.50775
lfoot -4.36608 -5.72979
ltoes 1.80137
1216
root 4.0175 17.9791 16.6481 -153.938 -4.08986 176.77
lowerback -26.291 -2.6216 -7.2811
upperback -0.438632 -1.6403 0.218438
thorax 14.5007 -1.42245 3.78609
lowerneck 1.33899 -0.0867757 -1.28241
upperneck 23.4225 -3.3362 3.33616
head 6.9965 -2.39659 1.00353
rclavicle 3.60297e-015 5.91384e-015
rhumerus -40.5271 -16.8868 -77.6324
rradius 35.7563
rwrist -2.10787
rhand -10.9204 -53.8055
rfingers 7.12502
rthumb 15.0972 -83.2349
lclavicle 3.60297e-015 5.91384e-015
lhumerus -31.8958 3.78168 79.7657
lradius 28.0529
lwrist -2.33567
lhand -23.4648 -14.3433
lfingers 7.12502
lthumb 2.99426 15.6155
rfemur -23.2212 2.9382 20.1301
rtibia 5.60176
rfoot -15.6626 0.730248
rtoes -8.15324
lfemur -25.065 -10.1273 -21.6844
ltibia 8.48057
lfoot -4.42574 -5.74555
ltoes 0.978815
1217
root 4.01462 17.9785 16.6424 -153.91 -4.04658 176.778
lowerback -26.3852 -2.59617 -7.26086
upperback -0.433232 -1.60221 0.183822
thorax 14.5528 -1.40494 3.74696
lowerneck 1.20348 -0.104087 -1.14689
upperneck 23.5767 -3.38003 3.28344
head 7.0699 -2.41239 0.957475
rclavicle 4.50993e-015 1.85864e-014
rhumerus -40.4578 -17.0757 -77.6401
rradius 35.7157
rwrist -2.00221
rhand -10.897 -53.9416
rfingers 7.12502
rthumb 15.1197 -83.3693
lclavicle 4.50993e-015 1.85864e-014
lhumerus -31.789 3.74382 79.8098
lradius 27.836
lwrist -2.44589
lhand -23.4699 -14.1415
lfingers 7.12502
lthumb 2.9893 15.8173
rfemur -23.3293 3.08117 20.1051
rtibia 5.79357
rfoot -15.8947 0.603192
rtoes -8.20198
lfemur -25.0552 -10.0988 -21.6904
ltibia 8.43422
lfoot -4.36859 -5.70687
ltoes 1.60694
